<?xml version="1.0" standalone="no"?>
<!DOCTYPE svg PUBLIC "-//W3C//DTD SVG 20010904//EN"
 "http://www.w3.org/TR/2001/REC-SVG-20010904/DTD/svg10.dtd">
<svg version="1.0" xmlns="http://www.w3.org/2000/svg"
 width="416.000000pt" height="416.000000pt" viewBox="0 0 416.000000 416.000000"
 preserveAspectRatio="xMidYMid meet">

<g transform="translate(0.000000,416.000000) scale(0.100000,-0.100000)"
fill="#000000" stroke="none">
<path d="M0 2080 l0 -2080 390 0 390 0 0 68 0 67 -62 0 c-43 0 -63 4 -64 13
-1 6 -2 34 -3 62 l-1 50 -192 2 -193 3 -3 193 -2 192 65 0 65 0 0 65 0 65 65
0 65 0 0 65 0 65 65 0 65 0 0 65 0 65 65 0 65 0 0 65 0 65 319 0 c359 0 331 7
331 -81 l0 -49 -65 0 -65 0 0 -66 0 -66 -65 4 -65 4 0 -52 c0 -29 -3 -59 -6
-68 -5 -14 4 -16 65 -16 l71 0 0 65 0 65 65 0 65 0 0 65 0 65 130 0 130 0 0
-65 0 -65 -65 0 -65 0 0 -65 0 -65 -65 0 -65 0 0 -65 0 -65 65 0 65 0 0 -65 0
-65 -131 0 -131 0 4 65 3 65 -67 0 -68 0 0 -65 0 -64 63 -3 62 -3 3 -62 3 -63
-131 0 -130 0 0 65 0 65 -65 0 -65 0 0 -65 0 -65 -65 0 -65 0 0 -65 0 -64 63
-3 62 -3 3 -128 3 -127 1624 0 1625 0 0 2080 0 2080 -2080 0 -2080 0 0 -2080z
m1040 1885 l0 -65 65 0 65 0 0 -195 0 -195 65 0 65 0 0 -130 0 -130 65 0 65 0
0 65 0 65 130 0 130 0 0 65 0 65 195 0 195 0 0 -65 0 -65 130 0 130 0 0 -65 0
-65 130 0 130 0 0 -65 0 -65 130 0 130 0 0 -65 0 -65 -65 0 -65 0 0 -130 0
-130 -65 0 -65 0 0 -65 0 -65 65 0 65 0 0 -67 0 -68 67 3 68 3 0 127 0 127 60
0 60 0 3 -62 3 -63 130 0 130 0 -3 -62 -3 -63 -62 -3 -63 -3 0 -64 0 -65 -130
0 -130 0 0 -130 0 -130 65 0 65 0 0 65 0 65 65 0 65 0 0 -65 0 -65 -65 0 -65
0 0 -65 0 -65 -65 0 -65 0 0 -65 0 -65 195 0 195 0 0 65 0 65 65 0 65 0 0 65
0 65 65 0 65 0 0 -260 0 -260 -65 0 -65 0 0 -130 0 -130 -65 0 -65 0 0 -65 0
-65 -65 0 -65 0 0 -65 0 -65 -65 0 -65 0 0 -65 0 -65 -65 0 -65 0 0 -65 0 -65
-195 0 -195 0 0 -65 0 -65 -195 0 -195 0 0 -65 0 -65 -195 0 -195 0 0 -65 0
-65 -65 0 -65 0 0 65 0 65 65 0 65 0 0 65 0 65 -65 0 -65 0 0 65 0 66 63 -3
62 -3 2 -40 c1 -22 2 -50 2 -62 1 -21 5 -23 66 -23 l65 0 0 65 c0 55 -3 65
-17 66 -10 0 -38 1 -63 2 l-45 2 0 60 0 60 60 0 60 0 3 -62 3 -63 64 0 65 0 0
65 0 65 65 0 65 0 0 130 0 130 -65 0 -65 0 0 65 0 65 -195 0 -195 0 0 65 0 65
-65 0 -65 0 0 65 0 65 -195 0 -195 0 0 -130 0 -130 -65 0 -65 0 0 130 0 130
65 0 65 0 0 65 0 65 -130 0 -130 0 0 65 c0 55 -3 65 -17 66 -10 0 -38 1 -63 2
l-45 2 0 60 0 60 60 0 60 0 3 -62 3 -63 64 0 65 0 0 65 0 65 -65 0 -65 0 0 65
0 65 -65 0 -65 0 0 -65 0 -65 -65 0 -65 0 0 -65 0 -64 63 -3 62 -3 0 -60 0
-60 -192 -3 -193 -2 0 65 0 65 -65 0 -65 0 0 65 0 65 68 0 67 0 -3 65 -4 65
196 0 196 0 0 65 0 65 -130 0 -130 0 0 65 0 65 65 0 65 0 0 65 0 65 65 0 65 0
0 -65 0 -65 130 0 130 0 0 65 0 65 -65 0 -65 0 0 65 0 65 65 0 65 0 0 -65 0
-65 65 0 65 0 0 130 0 130 -65 0 -65 0 0 65 0 65 65 0 65 0 0 65 0 65 65 0 65
0 0 65 0 65 65 0 65 0 0 65 0 65 -65 0 -65 0 0 130 0 130 -65 0 -65 0 0 195 0
195 -65 0 -65 0 0 65 0 65 65 0 65 0 0 -65z m2340 -780 l0 -65 195 0 195 0 0
-65 0 -65 65 0 65 0 0 -65 0 -65 -65 0 -65 0 0 65 0 65 -195 0 -195 0 0 65 0
65 -195 0 -195 0 0 65 0 65 195 0 195 0 0 -65z m260 -390 l0 -65 -65 0 -65 0
0 65 0 65 65 0 65 0 0 -65z m-3250 -1300 l0 -65 -65 0 -65 0 0 65 0 65 65 0
65 0 0 -65z m258 -262 l2 -193 -65 0 -65 0 0 195 0 196 63 -3 62 -3 3 -192z
m1300 -255 l-3 -63 -62 -3 -63 -3 0 66 0 65 65 0 66 0 -3 -62z m-908 -653 l0
-65 65 0 65 0 0 -65 0 -65 -65 0 -65 0 0 65 0 65 -65 0 -65 0 0 58 c0 32 3 62
7 65 3 4 33 7 65 7 l58 0 0 -65z m390 0 l0 -65 -65 0 -65 0 0 65 0 65 65 0 65
0 0 -65z"/>
<path d="M1690 2405 l0 -65 -65 0 -65 0 0 -65 0 -65 65 0 65 0 0 -65 0 -65
195 0 195 0 0 65 0 65 65 0 65 0 0 65 0 65 -65 0 -65 0 0 65 0 65 -195 0 -195
0 0 -65z m260 -130 l0 -65 -65 0 -65 0 0 65 0 65 65 0 65 0 0 -65z"/>
<path d="M908 844 l4 -66 -65 4 -66 3 -3 -65 -3 -65 -65 -5 -65 -5 0 -60 0
-60 -128 0 -127 0 0 -67 0 -68 130 0 130 0 0 65 0 65 65 0 64 0 3 63 3 62 60
0 60 0 5 65 5 65 63 3 62 3 0 64 0 65 -68 0 -68 0 4 -66z"/>
</g>
</svg>
